<?xml version="1.0" standalone="no"?>
<!DOCTYPE svg PUBLIC "-//W3C//DTD SVG 20010904//EN"
 "http://www.w3.org/TR/2001/REC-SVG-20010904/DTD/svg10.dtd">
<svg version="1.0" xmlns="http://www.w3.org/2000/svg"
 width="5000.000000pt" height="5000.000000pt" viewBox="0 0 5000.000000 5000.000000"
 preserveAspectRatio="xMidYMid meet">
<metadata>
Created by potrace 1.14, written by Peter Selinger 2001-2017
</metadata>
<g transform="translate(0.000000,5000.000000) scale(0.100000,-0.100000)"
fill="#000000" stroke="none">
<path d="M24650 43208 c-3 -3 -138 -8 -300 -12 -162 -4 -308 -9 -325 -11 -16
-1 -86 -6 -155 -9 -335 -17 -798 -58 -1210 -107 -3282 -389 -6410 -1599 -9107
-3522 -1905 -1358 -3544 -3031 -4870 -4967 -808 -1182 -1507 -2492 -2039
-3828 -826 -2071 -1305 -4343 -1382 -6546 -15 -428 -6 -1690 13 -1841 2 -16 6
-84 10 -150 3 -66 8 -138 10 -160 2 -22 7 -80 10 -130 11 -175 46 -543 70
-750 102 -874 240 -1643 440 -2460 678 -2775 1965 -5383 3769 -7635 1571
-1962 3525 -3626 5711 -4862 150 -85 174 -99 400 -220 1521 -822 3284 -1478
4995 -1857 763 -169 1345 -264 2235 -366 317 -36 887 -76 1360 -95 230 -9
1271 -14 1340 -5 17 1 122 6 235 10 113 4 223 8 245 10 22 2 94 6 160 10 416
22 1193 102 1610 165 1255 189 2332 446 3450 824 917 309 1657 617 2536 1056
3490 1743 6396 4497 8344 7905 327 572 658 1231 928 1845 829 1891 1352 3886
1556 5935 40 393 63 702 77 1020 4 83 8 164 10 180 8 69 11 1306 4 1485 -14
337 -40 781 -55 940 -3 30 -14 154 -26 275 -319 3429 -1559 6751 -3576 9575
-924 1295 -2008 2482 -3213 3519 -1784 1535 -3814 2733 -6020 3554 -1172 436
-2431 767 -3690 971 -210 34 -745 109 -865 121 -33 4 -116 13 -185 20 -207 23
-619 59 -811 71 -58 3 -121 8 -140 9 -19 2 -115 6 -214 10 -99 4 -193 9 -210
11 -49 6 -1120 17 -1125 12z m175 -9532 c651 -106 1190 -422 1559 -912 262
-349 418 -726 488 -1179 20 -132 23 -186 23 -455 0 -341 -10 -440 -70 -675
-117 -457 -340 -844 -740 -1280 -66 -71 -246 -258 -400 -415 -527 -536 -642
-705 -706 -1033 -10 -53 -22 -141 -25 -195 l-7 -97 39 -19 c22 -10 417 -193
879 -406 462 -214 1061 -490 1330 -615 270 -125 580 -269 690 -320 1438 -666
4003 -1863 5420 -2530 50 -23 162 -76 250 -118 88 -41 205 -96 260 -122 55
-26 267 -126 470 -223 204 -96 492 -232 640 -302 959 -453 2390 -1139 3315
-1590 477 -232 1648 -822 1885 -950 464 -249 657 -377 864 -574 294 -282 483
-621 562 -1011 25 -126 35 -443 18 -575 -68 -521 -340 -1049 -769 -1493 -69
-71 -166 -165 -216 -208 l-92 -79 -15039 0 -15039 0 -70 24 c-357 123 -622
281 -844 505 -175 176 -288 357 -363 582 -202 603 -48 1283 446 1973 130 182
247 318 436 507 149 148 188 182 256 218 44 24 755 403 1580 843 825 440 1532
817 1570 838 39 20 309 164 600 320 292 155 562 299 600 320 39 20 309 164
600 320 292 155 562 299 600 320 39 20 174 92 300 160 127 67 262 139 300 160
264 141 849 453 995 530 96 51 198 105 225 120 63 35 742 397 975 520 96 51
198 105 225 120 28 15 725 387 1550 827 1639 874 2795 1491 2920 1558 44 24
204 109 355 190 151 80 276 148 278 150 2 2 8 55 13 117 30 374 138 693 322
950 191 266 381 491 647 763 337 345 463 488 635 720 195 262 278 474 325 825
25 185 21 557 -8 745 -71 451 -245 805 -534 1080 -196 187 -416 299 -670 340
-121 20 -350 19 -464 0 -262 -46 -492 -172 -704 -385 -276 -277 -422 -582
-492 -1025 -19 -123 -22 -181 -22 -482 l-1 -343 -41 0 c-62 0 -200 26 -279 53
-282 97 -549 332 -626 554 -38 110 -41 150 -19 259 43 211 126 462 215 647
267 559 669 976 1191 1236 263 130 481 195 789 235 80 10 506 -3 600 -18z"/>
<path d="M23885 25794 c-325 -174 -835 -446 -1135 -606 -300 -160 -576 -308
-615 -328 -38 -21 -304 -163 -590 -315 -286 -152 -551 -294 -590 -315 -38 -20
-882 -470 -1875 -1000 -993 -529 -1836 -979 -1875 -1000 -38 -20 -308 -164
-600 -320 -291 -155 -561 -299 -600 -320 -60 -32 -914 -487 -1235 -658 -58
-31 -976 -521 -2040 -1088 l-1935 -1033 -73 -73 c-93 -93 -240 -274 -327 -403
-75 -111 -161 -278 -171 -333 -7 -34 -4 -39 46 -84 32 -29 103 -73 174 -108
l121 -61 14770 0 14770 0 38 43 c58 65 181 254 221 338 20 41 41 101 47 132
11 54 10 61 -15 113 -57 115 -233 258 -506 412 -302 170 -434 238 -1220 631
-757 378 -1034 514 -1970 965 -311 149 -1300 622 -1365 652 -38 18 -155 74
-259 124 -104 50 -190 91 -191 91 -2 0 -63 29 -136 64 -136 65 -1325 627
-1476 698 -46 21 -275 129 -510 239 -236 111 -644 303 -908 426 -264 124 -552
259 -640 300 -132 63 -681 319 -985 460 -41 19 -338 158 -660 308 -322 150
-814 379 -1095 510 -280 130 -566 263 -635 295 -160 75 -1024 475 -1375 637
-719 333 -979 454 -1460 675 -286 132 -522 241 -525 243 -3 2 -271 -138 -595
-311z"/>
</g>
</svg>
